<?xml version="1.0" encoding="UTF-8"?>
<svg id="Layer_1" data-name="Layer 1" xmlns="http://www.w3.org/2000/svg" xmlns:xlink="http://www.w3.org/1999/xlink" viewBox="0 0 517.45 368.12">
  <defs>
    <style>
      .cls-1 {
        fill: #ed1c24;
        stroke: #000;
        stroke-linecap: round;
        stroke-linejoin: round;
        stroke-width: 13px;
      }

      .cls-2 {
        fill: url(#linear-gradient-8);
      }

      .cls-3 {
        fill: url(#linear-gradient-7);
      }

      .cls-4 {
        fill: url(#linear-gradient-5);
      }

      .cls-5 {
        fill: url(#linear-gradient-6);
      }

      .cls-6 {
        fill: url(#linear-gradient-9);
      }

      .cls-7 {
        fill: url(#linear-gradient-4);
      }

      .cls-8 {
        fill: url(#linear-gradient-3);
      }

      .cls-9 {
        fill: url(#linear-gradient-2);
      }

      .cls-10 {
        fill: url(#linear-gradient);
      }

      .cls-11 {
        fill: #5b47e0;
      }

      .cls-12 {
        fill: url(#linear-gradient-10);
      }

      .cls-13 {
        fill: url(#linear-gradient-11);
      }

      .cls-14 {
        fill: url(#linear-gradient-12);
      }

      .cls-15 {
        fill: url(#linear-gradient-13);
      }

      .cls-16 {
        fill: url(#linear-gradient-19);
      }

      .cls-17 {
        fill: url(#linear-gradient-14);
      }

      .cls-18 {
        fill: url(#linear-gradient-21);
      }

      .cls-19 {
        fill: url(#linear-gradient-20);
      }

      .cls-20 {
        fill: url(#linear-gradient-22);
      }

      .cls-21 {
        fill: url(#linear-gradient-23);
      }

      .cls-22 {
        fill: url(#linear-gradient-15);
      }

      .cls-23 {
        fill: url(#linear-gradient-16);
      }

      .cls-24 {
        fill: url(#linear-gradient-17);
      }

      .cls-25 {
        fill: url(#linear-gradient-18);
      }

      .cls-26 {
        fill: url(#linear-gradient-24);
      }

      .cls-27 {
        fill: #f59e0b;
      }

      .cls-28 {
        fill: #333;
      }
    </style>
    <linearGradient id="linear-gradient" x1="137.7" y1="165.55" x2="432.23" y2="165.55" gradientUnits="userSpaceOnUse">
      <stop offset="0" stop-color="#000"/>
      <stop offset="1" stop-color="#000"/>
    </linearGradient>
    <linearGradient id="linear-gradient-2" y1="192.85" y2="192.85" xlink:href="#linear-gradient"/>
    <linearGradient id="linear-gradient-3" y1="217.01" y2="217.01" xlink:href="#linear-gradient"/>
    <linearGradient id="linear-gradient-4" y1="233.39" y2="233.39" xlink:href="#linear-gradient"/>
    <linearGradient id="linear-gradient-5" y1="236.23" y2="236.23" xlink:href="#linear-gradient"/>
    <linearGradient id="linear-gradient-6" y1="218.66" y2="218.66" xlink:href="#linear-gradient"/>
    <linearGradient id="linear-gradient-7" y1="188.68" y2="188.68" xlink:href="#linear-gradient"/>
    <linearGradient id="linear-gradient-8" y1="161.24" y2="161.24" xlink:href="#linear-gradient"/>
    <linearGradient id="linear-gradient-9" y1="130.85" y2="130.85" xlink:href="#linear-gradient"/>
    <linearGradient id="linear-gradient-10" y1="106.21" y2="106.21" xlink:href="#linear-gradient"/>
    <linearGradient id="linear-gradient-11" y1="93.68" y2="93.68" xlink:href="#linear-gradient"/>
    <linearGradient id="linear-gradient-12" y1="90" y2="90" xlink:href="#linear-gradient"/>
    <linearGradient id="linear-gradient-13" y1="94.71" y2="94.71" xlink:href="#linear-gradient"/>
    <linearGradient id="linear-gradient-14" y1="108.11" y2="108.11" xlink:href="#linear-gradient"/>
    <linearGradient id="linear-gradient-15" y1="128.56" y2="128.56" xlink:href="#linear-gradient"/>
    <linearGradient id="linear-gradient-16" y1="154.9" y2="154.9" xlink:href="#linear-gradient"/>
    <linearGradient id="linear-gradient-17" y1="185.85" y2="185.85" xlink:href="#linear-gradient"/>
    <linearGradient id="linear-gradient-18" y1="215.94" y2="215.94" xlink:href="#linear-gradient"/>
    <linearGradient id="linear-gradient-19" y1="238.59" y2="238.59" xlink:href="#linear-gradient"/>
    <linearGradient id="linear-gradient-20" y1="250.47" y2="250.47" xlink:href="#linear-gradient"/>
    <linearGradient id="linear-gradient-21" y1="246.59" y2="246.59" xlink:href="#linear-gradient"/>
    <linearGradient id="linear-gradient-22" y1="223.22" y2="223.22" xlink:href="#linear-gradient"/>
    <linearGradient id="linear-gradient-23" y1="191.94" y2="191.94" xlink:href="#linear-gradient"/>
    <linearGradient id="linear-gradient-24" y1="162.75" y2="162.75" xlink:href="#linear-gradient"/>
  </defs>
  <rect class="cls-27" x="0" y="36.23" width="339.74" height="287.89"/>
  <rect class="cls-11" x="197.58" y="67.23" width="293.88" height="233.66" transform="translate(12.86 390.39) rotate(-60)"/>
  <polygon class="cls-28" points="169.87 252.9 293.23 324.12 344.52 324.12 344.52 36.23 294.96 36.23 169.87 252.9"/>
  <g id="SVGRepo_iconCarrier" data-name="SVGRepo iconCarrier">
    <path class="cls-1" d="M67.92,134.5l21.5,19.03c11.82,10.46,29.89,9.36,40.36-2.46,10.46-11.82,9.36-29.89-2.46-40.36l-21.5-19.03-37.89,42.82Z"/>
    <path d="M73.84,127.81c2.22,1.96,5.61,1.76,7.57-.46s1.76-5.61-.46-7.57l-7.11,8.03ZM92.79,106.4c2.22,1.96,5.61,1.76,7.57-.46s1.76-5.61-.46-7.57l-7.11,8.03ZM111.92,128.1c-2.22-1.96-5.61-1.76-7.57.46s-1.76,5.61.46,7.57l7.11-8.03ZM126.32,155.16c2.22,1.96,5.61,1.76,7.57-.46s1.76-5.61-.46-7.57l-7.11,8.03ZM71.2,166.03c-1.96,2.22-1.76,5.61.46,7.57s5.61,1.76,7.57-.46l-8.03-7.11ZM93.44,157.08c1.96-2.22,1.76-5.61-.46-7.57s-5.61-1.76-7.57.46l8.03,7.11ZM47.36,130.32c-2.96.17-5.21,2.71-5.04,5.66.17,2.96,2.71,5.21,5.66,5.04l-.62-10.7ZM68.23,139.85c2.96-.17,5.21-2.71,5.04-5.66-.17-2.96-2.71-5.21-5.66-5.04l.62,10.7ZM115.53,160.37c-.19-2.95-2.73-5.2-5.69-5.01-2.95.19-5.2,2.73-5.01,5.69l10.7-.68ZM106.18,182.49c.19,2.95,2.73,5.2,5.69,5.01,2.95-.19,5.2-2.73,5.01-5.69l-10.7.68ZM145.54,98.2c1.96-2.22,1.76-5.61-.46-7.57s-5.61-1.76-7.57.46l8.03,7.11ZM123.3,107.15c-1.96,2.22-1.76,5.61.46,7.57s5.61,1.76,7.57-.46l-8.03-7.11ZM109.86,71.09c-.19-2.95-2.74-5.2-5.69-5.01-2.95.19-5.2,2.74-5.01,5.69l10.7-.69ZM100.47,92.02c.19,2.95,2.74,5.2,5.69,5.01,2.95-.19,5.2-2.74,5.01-5.69l-10.7.69ZM136.65,125.08c-2.96.17-5.21,2.71-5.04,5.67.17,2.96,2.71,5.21,5.67,5.04l-.63-10.7ZM158.73,134.52c2.96-.17,5.21-2.71,5.04-5.67-.17-2.96-2.71-5.21-5.67-5.04l.63,10.7ZM80.95,119.78l-5.35-4.74-7.11,8.03,5.35,4.74,7.11-8.03ZM75.59,115.04c-3.7-3.27-4.04-8.92-.77-12.61l-8.03-7.11c-7.19,8.13-6.44,20.55,1.69,27.75l7.11-8.03ZM74.82,102.43c3.27-3.7,8.92-4.04,12.61-.77l7.11-8.03c-8.13-7.19-20.55-6.44-27.75,1.69l8.03,7.11ZM87.44,101.66l5.35,4.74,7.11-8.03-5.35-4.74-7.11,8.03ZM104.82,136.13l21.5,19.03,7.11-8.03-21.5-19.03-7.11,8.03ZM79.23,173.14l14.21-16.06-8.03-7.11-14.21,16.06,8.03,7.11ZM47.98,141.02l20.25-1.17-.62-10.7-20.25,1.17.62,10.7ZM104.83,161.05l1.35,21.44,10.7-.68-1.35-21.44-10.7.68ZM137.51,91.09l-14.21,16.06,8.03,7.11,14.21-16.06-8.03-7.11ZM99.16,71.78l1.3,20.24,10.7-.69-1.3-20.24-10.7.69ZM137.28,135.78l21.45-1.26-.63-10.7-21.45,1.26.63,10.7Z"/>
  </g>
  <g>
    <path class="cls-10" d="M145.87,157.77c.48.7.74,1.18,1.02,1.68l.76,1.42,1.39,2.7c.91,1.77,1.81,3.52,2.74,5.25,1.15,2.16.34,4.84-1.81,5.99-2.14,1.15-4.8.35-5.97-1.77-.98-1.78-1.94-3.58-2.88-5.35l-1.39-2.62-.67-1.22c-.21-.37-.45-.76-.54-.88-1.49-1.99-1.09-4.81.9-6.3s4.81-1.09,6.3.9c.03.04.07.09.1.13l.05.07Z"/>
    <path class="cls-9" d="M161.81,185.63l6.79,9.58.15.21c1.35,1.91.9,4.55-1,5.9-1.89,1.34-4.51.91-5.87-.96l-7.21-9.91c-1.4-1.92-.98-4.62.95-6.02,1.92-1.4,4.62-.98,6.02.95,0,0,.01.02.02.02l.16.23Z"/>
    <path class="cls-8" d="M181.17,210.18c2.61,2.78,5.41,5.38,8.38,7.76,1.74,1.4,2.02,3.94.63,5.68-1.39,1.73-3.91,2.01-5.65.65-3.3-2.59-6.42-5.41-9.32-8.43-1.58-1.64-1.53-4.24.11-5.82s4.24-1.53,5.82.11c0,0,.03.03.04.04Z"/>
    <path class="cls-7" d="M205.68,227.88c3.46,1.56,7.04,2.84,10.69,3.8,2.06.54,3.29,2.64,2.75,4.7-.54,2.04-2.62,3.26-4.66,2.76-4.1-1.03-8.1-2.41-11.96-4.09-1.99-.87-2.89-3.18-2.03-5.16.87-1.99,3.18-2.89,5.16-2.03,0,0,.04.02.04.02Z"/>
    <path class="cls-4" d="M234.98,233.61c3.72-.24,7.39-.9,10.87-2.03h0c1.92-.63,3.98.42,4.61,2.35.62,1.91-.41,3.95-2.31,4.59-4.12,1.39-8.38,2.2-12.64,2.53-2.05.16-3.85-1.37-4.01-3.43-.16-2.05,1.37-3.85,3.43-4.01,0,0,.04,0,.05,0Z"/>
    <path class="cls-5" d="M260.54,221.82c1.09-1.38,2.03-2.87,2.81-4.44.75-1.52,1.29-3.12,1.59-4.77.35-1.88,2.15-3.13,4.03-2.78,1.87.34,3.1,2.13,2.79,3.99-.39,2.29-1.12,4.53-2.12,6.61-.97,2.03-2.16,3.95-3.53,5.73h0c-1.19,1.55-3.41,1.84-4.96.65-1.55-1.19-1.83-3.41-.64-4.96,0,0,.02-.03.03-.03Z"/>
    <path class="cls-3" d="M261.62,195.3c-1.6-3.46-3.52-6.85-5.56-10.22-.94-1.54-.44-3.56,1.1-4.49,1.53-.93,3.53-.44,4.47,1.07,2.14,3.45,4.22,7.01,6.03,10.8.8,1.67.09,3.66-1.58,4.46-1.67.8-3.66.09-4.46-1.58,0,0-.02-.03-.02-.04Z"/>
    <path class="cls-2" d="M245.48,168.08c-2.08-3.5-4.07-7.09-5.81-10.87-.71-1.54-.03-3.37,1.51-4.08,1.53-.7,3.35-.04,4.07,1.48,1.65,3.47,3.57,6.86,5.62,10.22.91,1.48.44,3.42-1.04,4.33-1.48.91-3.42.44-4.33-1.04,0,0-.02-.03-.02-.03Z"/>
    <path class="cls-6" d="M234.7,136.63c.04-2.19.3-4.39.78-6.53.24-1.07.53-2.13.88-3.17.34-1.05.77-2.05,1.18-3.06.6-1.47,2.28-2.18,3.76-1.59,1.46.59,2.17,2.24,1.61,3.7l-.07.19c-.33.85-.69,1.68-.95,2.55-.28.86-.51,1.73-.69,2.61-.37,1.76-.56,3.56-.57,5.37-.01,1.63-1.34,2.95-2.98,2.94-1.63-.01-2.95-1.34-2.94-2.98,0,0,0-.03,0-.04Z"/>
    <path class="cls-12" d="M250.77,107.37c3.26-2.63,6.76-4.91,10.38-6.91,1.3-.72,2.94-.24,3.66,1.06.71,1.29.25,2.92-1.03,3.64-3.36,1.91-6.57,4.06-9.5,6.49-1.18.97-2.92.81-3.89-.36-.97-1.18-.81-2.92.36-3.89,0,0,.02-.02.03-.02Z"/>
    <path class="cls-13" d="M280.12,92.63c3.92-1.17,7.9-2.13,11.91-2.89,1.36-.26,2.66.64,2.92,1.99.25,1.35-.62,2.64-1.96,2.91-3.84.77-7.64,1.74-11.37,2.9-1.36.42-2.8-.33-3.22-1.69-.42-1.36.33-2.8,1.69-3.22,0,0,.02,0,.03,0Z"/>
    <path class="cls-14" d="M312.29,87.59c4.07-.11,8.15-.02,12.22.26,1.27.09,2.23,1.19,2.14,2.46-.09,1.26-1.18,2.21-2.43,2.14-3.92-.22-7.85-.26-11.77-.11-1.31.05-2.42-.97-2.47-2.29-.05-1.31.97-2.42,2.29-2.47,0,0,.02,0,.03,0Z"/>
    <path class="cls-15" d="M344.63,90.93c3.96.96,7.88,2.13,11.71,3.52,1.1.4,1.66,1.61,1.27,2.71-.4,1.09-1.59,1.65-2.68,1.27-3.7-1.29-7.48-2.37-11.3-3.25-1.18-.27-1.91-1.44-1.64-2.62.27-1.18,1.44-1.91,2.62-1.64,0,0,.02,0,.03,0Z"/>
    <path class="cls-17" d="M374.73,103.18c3.51,2.06,6.91,4.28,10.2,6.66.86.62,1.05,1.82.43,2.68-.62.85-1.8,1.05-2.66.45-3.22-2.27-6.55-4.39-9.97-6.34-.96-.55-1.29-1.76-.74-2.72.55-.96,1.76-1.29,2.72-.74,0,0,.02,0,.02.01Z"/>
    <path class="cls-22" d="M400.4,122.92c2.89,2.85,5.63,5.85,8.22,8.98.61.74.5,1.82-.23,2.43-.73.6-1.81.5-2.42-.22-2.54-3.01-5.25-5.88-8.08-8.62-.72-.69-.74-1.83-.04-2.55.69-.72,1.83-.74,2.55-.04,0,0,.01.01.02.02Z"/>
    <path class="cls-23" d="M419.99,148.72c1.92,3.59,3.6,7.32,4.98,11.16.29.8-.13,1.68-.93,1.96-.79.28-1.66-.12-1.96-.91-1.37-3.67-3.03-7.24-4.92-10.68-.43-.78-.14-1.76.63-2.18.78-.43,1.76-.14,2.18.63,0,0,0,.01,0,.02Z"/>
    <path class="cls-24" d="M429.05,179.83c.2,4.09,0,8.2-.62,12.25-.11.73-.8,1.24-1.53,1.12-.73-.11-1.23-.79-1.13-1.51.54-3.88.69-7.8.45-11.7-.05-.78.55-1.45,1.33-1.5s1.45.55,1.5,1.33c0,0,0,.01,0,.02Z"/>
    <path class="cls-25" d="M422.16,211.41c-1.85,3.63-4.01,7.1-6.43,10.36-.38.51-1.1.62-1.61.24-.51-.38-.61-1.09-.24-1.6,2.31-3.19,4.36-6.57,6.1-10.09.3-.61,1.03-.85,1.64-.56.61.3.85,1.03.56,1.64,0,0,0,.01,0,.01Z"/>
    <path class="cls-16" d="M401.5,236.17c-3.24,2.44-6.66,4.63-10.2,6.57-.46.25-1.04.08-1.3-.38-.25-.46-.09-1.04.37-1.29,3.45-1.94,6.76-4.12,9.88-6.54.45-.35,1.1-.27,1.44.18s.27,1.1-.18,1.44c0,0,0,0-.01,0Z"/>
    <path class="cls-19" d="M372.58,250.27c-3.91,1.03-7.92,1.74-11.96,2.05-.42.03-.79-.28-.82-.7-.03-.42.28-.78.69-.82,3.94-.35,7.84-1.09,11.65-2.14.44-.12.91.14,1.03.58s-.14.91-.58,1.03c0,0,0,0,0,0Z"/>
    <path class="cls-18" d="M340.62,249.92c-3.83-1.35-7.46-3.27-10.72-5.68-.25-.19-.31-.54-.12-.8.19-.25.54-.31.79-.12,3.2,2.31,6.74,4.13,10.47,5.39.34.11.52.48.4.81s-.48.52-.81.4c0,0,0,0,0,0Z"/>
    <path class="cls-20" d="M316.92,228.94c-1.9-3.56-3.39-7.33-4.49-11.2-.06-.2.06-.41.26-.47.2-.06.41.06.46.26,1.12,3.81,2.64,7.51,4.55,10.98.12.22.04.49-.18.61-.22.12-.49.04-.61-.18,0,0,0,0,0,0Z"/>
    <path class="cls-21" d="M310.16,197.84c.17-4.01.69-8.01,1.55-11.92.02-.1.12-.16.22-.14.1.02.16.12.14.22-.81,3.91-1.28,7.88-1.4,11.87,0,.14-.12.25-.26.25-.14,0-.25-.12-.25-.26,0,0,0,0,0,0Z"/>
    <path class="cls-26" d="M318.71,167.21c1.7-3.14,3.63-6.15,5.75-9.02-2.09,2.89-3.98,5.92-5.64,9.08-.02.03-.06.04-.09.03-.03-.02-.04-.06-.03-.09,0,0,0,0,0,0Z"/>
  </g>
</svg>