<?xml version="1.0" encoding="UTF-8"?>
<svg id="Layer_2" data-name="Layer 2" xmlns="http://www.w3.org/2000/svg" viewBox="0 0 486.84 456.25">
  <defs>
    <style>
      .cls-1 {
        fill: #5b47e0;
      }

      .cls-2 {
        fill: #f2f2f2;
      }

      .cls-3 {
        fill: #f59e0b;
      }

      .cls-4 {
        fill: #333;
      }
    </style>
  </defs>
  <g id="Layer_1-2" data-name="Layer 1">
    <g>
      <path class="cls-4" d="M304.72,5.3L19.59,169.77C7.64,176.66.25,189.38.2,203.18L0,251.6c-.06,14.48,7.64,27.88,20.18,35.11h.02c4.18,2.43,6.76,6.89,6.76,11.72v62.42c0,14.53,7.75,27.95,20.33,35.22l94.94,54.81c12.37,7.14,27.6,7.14,39.97,0l257.63-148.74c12.35-7.13,19.96-20.31,19.96-34.57v-62.86c0-4.83,2.58-9.3,6.76-11.71l.59-.34c12.19-7.04,19.7-20.04,19.7-34.12v-48.66c0-13.8-7.36-26.56-19.32-33.46L344.33,5.31c-12.25-7.08-27.35-7.08-39.61,0Z"/>
      <path class="cls-1" d="M168.99,122.73l108.2,62.47c9.02,5.21,9.02,18.22,0,23.43l-108.21,62.47c-4.18,2.42-9.34,2.42-13.53,0l-108.08-62.4c-9.01-5.2-9.02-18.21-.01-23.42l108.09-62.55c4.19-2.42,9.35-2.43,13.54,0Z"/>
      <path class="cls-3" d="M26.96,251.58h0c0-10.41,11.27-16.92,20.29-11.71l108.21,62.47c4.18,2.42,9.34,2.42,13.53,0l108.21-62.47c9.02-5.21,20.29,1.3,20.29,11.71h0c0,4.83-2.58,9.3-6.76,11.71l-121.73,70.28c-4.18,2.42-9.34,2.42-13.53,0l-121.73-70.28c-4.18-2.42-6.76-6.88-6.76-11.71Z"/>
      <path class="cls-2" d="M425.98,278.91l-257,148.38c-4.18,2.42-9.34,2.42-13.53,0l-101.45-58.57h0v-39.05c0-10.41,11.27-16.92,20.29-11.71l67.88,39.19c12.4,7.16,27.68,7.16,40.09,0l230.19-132.9c9.02-5.21,20.29,1.3,20.29,11.71v31.24c0,4.83-2.58,9.3-6.76,11.71Z"/>
      <path class="cls-1" d="M453.03,169.58l-108.21,62.47c-9.02,5.21-20.29-1.3-20.29-11.71h0c0-4.83,2.58-9.3,6.76-11.71l108.21-62.47c9.02-5.21,20.29,1.3,20.29,11.71h0c0,4.83-2.58,9.3-6.76,11.71Z"/>
      <path class="cls-3" d="M317.77,177.39l-108.21-62.47c-9.02-5.21-9.02-18.22,0-23.43l108.21-62.47c4.18-2.42,9.34-2.42,13.53,0l108.21,62.47c9.02,5.21,9.02,18.22,0,23.43l-108.21,62.47c-4.18,2.42-9.34,2.42-13.53,0Z"/>
    </g>
  </g>
</svg>